# xmcd
#
# Track frame offsets:
# 150
# 12405
# 25489
# 39535
# 54815
# 70342
# 83095
# 96387
# 117425
# 134077
# 143249
# 156157
# 171085
# 185928
# 195977
# 210834
#
# Disc length: 2979 seconds
#
# Revision: 0
# Processed by: cddbd v1.5.1PL0 Copyright (c) Steve Scherf et al.
# Submitted via: Audion 3.0.2 (http://www.panic.com/audion/)
#
DISCID=e30ba110
DTITLE=Ray Charles - Ray OST (Original Sound Track)
DYEAR=1900
DGENRE=
TTITLE0=Mess Around (Studio)
TTITLE1=I Got A Woman
TTITLE2=Hallelujah I Love Her So (Live)
TTITLE3=Drown In My Own Tears
TTITLE4=Night Time Is The Right Time (Studio)
TTITLE5=Marianne (Studio)
TTITLE6=Hard Times (Studio)
TTITLE7=What'd I Say (Live)
TTITLE8=Georgia On My Mind (Studio)
TTITLE9=Hit The Road Jack (Studio)
TTITLE10=Unchain My Heart (Studio)
TTITLE11=I Can't Stop Loving You
TTITLE12=Born To Lose (Studio)
TTITLE13=Bye Bye Love (Studio)
TTITLE14=You Don't Know Me (Live)
TTITLE15=Let The Good Times Roll (Live)
EXTD=
EXTT0=
EXTT1=
EXTT2=
EXTT3=
EXTT4=
EXTT5=
EXTT6=
EXTT7=
EXTT8=
EXTT9=
EXTT10=
EXTT11=
EXTT12=
EXTT13=
EXTT14=
EXTT15=
PLAYORDER=
